<svg xmlns="http://www.w3.org/2000/svg" width="14" height="17" viewBox="0 0 14 17" fill="none">
    <g clip-path="url(#clip0_2997_4938)">
        <path
            d="M11.6965 9.02799C11.6728 7.64201 12.2926 6.56329 13.554 5.79134C12.8428 4.7923 11.7938 4.23075 10.4064 4.10528C9.913 4.06043 9.2823 4.17302 8.51478 4.44592C7.68899 4.74173 7.22423 4.88867 7.1215 4.88867C6.90369 4.88867 6.48536 4.76463 5.86503 4.51415C5.24617 4.26415 4.71869 4.13963 4.28307 4.13963C3.54914 4.15108 2.86658 4.34717 2.23637 4.72741C1.60566 5.10814 1.10139 5.6277 0.723559 6.28562C0.240528 7.10289 0 8.07951 0 9.21501C0 10.237 0.177309 11.2584 0.532915 12.2813C0.865307 13.2579 1.29006 14.1153 1.80569 14.8524C2.26402 15.5227 2.66655 16.0108 3.00981 16.3181C3.50321 16.7947 4.00748 17.0223 4.5241 16.9989C4.85649 16.9874 5.29161 16.8682 5.83095 16.6406C6.33522 16.4259 6.83998 16.3181 7.34474 16.3181C7.81444 16.3181 8.30142 16.4254 8.80668 16.6406C9.36824 16.8682 9.82707 16.9817 10.1827 16.9817C10.7102 16.9593 11.2031 16.7379 11.6624 16.3185C11.8224 16.1816 11.9972 15.9946 12.1864 15.756C12.3756 15.517 12.585 15.2331 12.8146 14.9044C12.9747 14.6663 13.1322 14.4106 13.2878 14.1377C13.4429 13.8653 13.5832 13.5762 13.7091 13.2689C13.7659 13.1439 13.8173 13.0165 13.8637 12.8858C13.9091 12.7556 13.9551 12.6225 14.001 12.486C13.5767 12.3047 13.1925 12.048 12.8487 11.7188C12.0931 10.9932 11.7088 10.0957 11.697 9.02846L11.6965 9.02799Z"
            fill="white" />
        <path
            d="M9.52913 2.72567C10.1371 1.9876 10.4414 1.19275 10.4414 0.340649V0.170802C10.4414 0.11355 10.4354 0.0572519 10.4241 0C9.99982 0.0229008 9.54988 0.153626 9.07376 0.391698C8.59814 0.630725 8.20549 0.931775 7.89532 1.29485C7.27647 2.0105 6.9668 2.77672 6.9668 3.59447V3.75572C6.9668 3.80725 6.97272 3.86116 6.98408 3.91842C7.93632 4.00906 8.78483 3.61164 9.52963 2.72614L9.52913 2.72567Z"
            fill="white" />
    </g>
    <defs>
        <clipPath id="clip0_2997_4938">
            <rect width="14" height="17" fill="white" />
        </clipPath>
    </defs>
</svg>